<svg width="120" height="39" viewBox="0 0 120 39" fill="none" xmlns="http://www.w3.org/2000/svg">
<path d="M31.3838 9.66931L26.6157 9.79674C26.5662 9.45693 26.4317 9.15605 26.2122 8.89411C25.9927 8.62509 25.706 8.41625 25.3521 8.26758C25.0052 8.11183 24.6016 8.03396 24.1415 8.03396C23.5397 8.03396 23.0265 8.15431 22.6017 8.39501C22.184 8.63571 21.9787 8.96137 21.9858 9.37197C21.9787 9.69055 22.1061 9.96665 22.3681 10.2003C22.6371 10.4339 23.1149 10.6215 23.8017 10.7631L26.9449 11.3578C28.5732 11.6693 29.7838 12.1861 30.5767 12.9082C31.3767 13.6303 31.7802 14.586 31.7873 15.7754C31.7802 16.8939 31.4475 17.8673 30.7891 18.6956C30.1378 19.5239 29.2458 20.1682 28.113 20.6283C26.9803 21.0814 25.6848 21.308 24.2264 21.308C21.8973 21.308 20.0602 20.8301 18.7151 19.8744C17.377 18.9116 16.6125 17.6231 16.4213 16.009L21.5504 15.8815C21.6637 16.4762 21.9575 16.9293 22.4318 17.2408C22.9061 17.5523 23.5114 17.708 24.2477 17.708C24.9131 17.708 25.4547 17.5842 25.8724 17.3364C26.2901 17.0886 26.5025 16.7594 26.5095 16.3488C26.5025 15.9807 26.3396 15.6869 26.0211 15.4674C25.7025 15.2409 25.2034 15.0639 24.5238 14.9364L21.6778 14.3949C20.0425 14.0975 18.8248 13.5489 18.0248 12.7489C17.2248 11.9418 16.8284 10.9153 16.8355 9.66931C16.8284 8.57907 17.1186 7.64812 17.7062 6.87646C18.2938 6.09772 19.1292 5.50305 20.2124 5.09244C21.2955 4.68183 22.5734 4.47652 24.0459 4.47652C26.2547 4.47652 27.9962 4.94023 29.2705 5.86764C30.5448 6.78797 31.2493 8.05519 31.3838 9.66931ZM40.4626 21.308C38.7423 21.308 37.2663 20.954 36.0344 20.246C34.8097 19.5381 33.8681 18.554 33.2097 17.2939C32.5513 16.0267 32.2221 14.5612 32.2221 12.8975C32.2221 11.2268 32.5513 9.76134 33.2097 8.5012C33.8752 7.23398 34.8203 6.24639 36.0451 5.53844C37.2769 4.8305 38.7459 4.47652 40.452 4.47652C41.96 4.47652 43.2732 4.74908 44.3918 5.2942C45.5174 5.83932 46.3952 6.61098 47.0253 7.60919C47.6625 8.60031 47.9987 9.76488 48.0341 11.1029H43.1812C43.0821 10.2675 42.7989 9.61268 42.3316 9.13835C41.8715 8.66403 41.2697 8.42687 40.5264 8.42687C39.9246 8.42687 39.3972 8.59677 38.9441 8.93659C38.491 9.26932 38.137 9.76488 37.8822 10.4233C37.6344 11.0746 37.5105 11.8816 37.5105 12.8445C37.5105 13.8073 37.6344 14.6214 37.8822 15.2869C38.137 15.9453 38.491 16.4444 38.9441 16.7842C39.3972 17.1169 39.9246 17.2833 40.5264 17.2833C41.0078 17.2833 41.4325 17.1806 41.8007 16.9753C42.1759 16.77 42.4838 16.4691 42.7245 16.0727C42.9652 15.6692 43.1174 15.1807 43.1812 14.6072H48.0341C47.9846 15.9523 47.6483 17.1275 47.0253 18.1328C46.4094 19.1381 45.5422 19.9204 44.4236 20.4797C43.3121 21.0319 41.9918 21.308 40.4626 21.308ZM49.1964 21V4.68891H54.2405V7.66228H54.4104C54.7078 6.5862 55.1927 5.78622 55.8653 5.26234C56.5378 4.73138 57.3201 4.4659 58.2121 4.4659C58.4528 4.4659 58.7006 4.4836 58.9555 4.519C59.2103 4.54732 59.4475 4.59333 59.6669 4.65705V9.17021C59.4192 9.08526 59.0935 9.018 58.69 8.96844C58.2935 8.91889 57.9396 8.89411 57.6281 8.89411C57.0121 8.89411 56.4564 9.03216 55.9608 9.30826C55.4724 9.57728 55.0865 9.95603 54.8033 10.4445C54.5272 10.9259 54.3892 11.4923 54.3892 12.1436V21H49.1964ZM67.0653 21.308C65.3592 21.308 63.8867 20.9717 62.6478 20.2991C61.4159 19.6195 60.4673 18.6532 59.8018 17.4001C59.1434 16.1399 58.8142 14.6426 58.8142 12.9082C58.8142 11.2233 59.147 9.75073 59.8124 8.49058C60.4779 7.22336 61.4159 6.23931 62.6265 5.53844C63.8371 4.8305 65.2636 4.47652 66.9061 4.47652C68.0671 4.47652 69.129 4.65705 70.0918 5.0181C71.0546 5.37915 71.8865 5.91365 72.5873 6.6216C73.2882 7.32955 73.8333 8.20386 74.2227 9.24454C74.6121 10.2781 74.8067 11.464 74.8067 12.802V14.0975H60.6301V11.0817H69.975C69.9679 10.5295 69.837 10.0374 69.5821 9.6056C69.3272 9.17375 68.9768 8.83747 68.5308 8.59677C68.0919 8.34899 67.5857 8.2251 67.0122 8.2251C66.4317 8.2251 65.9114 8.35607 65.4512 8.61801C64.9911 8.87287 64.6265 9.22331 64.3574 9.66931C64.0884 10.1082 63.9468 10.6073 63.9327 11.1666V14.2356C63.9327 14.901 64.0636 15.4851 64.3256 15.9877C64.5875 16.4833 64.9592 16.8691 65.4406 17.1452C65.922 17.4213 66.4954 17.5594 67.1609 17.5594C67.6211 17.5594 68.0388 17.4957 68.414 17.3682C68.7892 17.2408 69.1113 17.0532 69.3803 16.8054C69.6493 16.5576 69.8511 16.2532 69.9856 15.8922L74.7536 16.0302C74.5554 17.0992 74.12 18.0302 73.4475 18.8231C72.782 19.6089 71.9077 20.2213 70.8245 20.6602C69.7414 21.092 68.4883 21.308 67.0653 21.308ZM80.5618 21.2761C79.5211 21.2761 78.5973 21.1027 77.7902 20.7558C76.9902 20.4018 76.3566 19.8708 75.8894 19.1629C75.4292 18.4479 75.1991 17.5523 75.1991 16.4762C75.1991 15.57 75.3584 14.8055 75.677 14.1825C75.9956 13.5595 76.4345 13.0533 76.9938 12.6639C77.553 12.2746 78.1973 11.9808 78.9265 11.7825C79.6556 11.5772 80.4344 11.4392 81.2627 11.3684C82.1901 11.2834 82.937 11.1949 83.5033 11.1029C84.0697 11.0038 84.4803 10.8657 84.7352 10.6888C84.9971 10.5047 85.1281 10.2463 85.1281 9.91355V9.86046C85.1281 9.31534 84.9405 8.89411 84.5653 8.59677C84.19 8.29943 83.6839 8.15077 83.0467 8.15077C82.36 8.15077 81.8078 8.29943 81.3901 8.59677C80.9724 8.89411 80.7069 9.30472 80.5937 9.8286L75.8044 9.65869C75.946 8.66757 76.3106 7.78263 76.8982 7.00389C77.4929 6.21807 78.307 5.60216 79.3406 5.15615C80.3813 4.70307 81.6308 4.47652 83.0892 4.47652C84.1299 4.47652 85.0891 4.60041 85.967 4.84819C86.8448 5.0889 87.6094 5.44287 88.2607 5.91011C88.912 6.37028 89.4147 6.93664 89.7687 7.60919C90.1297 8.28174 90.3102 9.04986 90.3102 9.91355V21H85.4254V18.7275H85.298C85.0077 19.2797 84.636 19.7469 84.183 20.1292C83.737 20.5115 83.2095 20.7982 82.6007 20.9894C81.9989 21.1805 81.3193 21.2761 80.5618 21.2761ZM82.1653 17.878C82.7246 17.878 83.2272 17.7647 83.6732 17.5381C84.1263 17.3116 84.4874 17.0001 84.7564 16.6037C85.0254 16.2001 85.1599 15.7329 85.1599 15.2019V13.6515C85.0113 13.7294 84.8307 13.8002 84.6183 13.8639C84.413 13.9276 84.1865 13.9878 83.9387 14.0444C83.6909 14.1011 83.4361 14.1506 83.1741 14.1931C82.9122 14.2356 82.6609 14.2745 82.4202 14.3099C81.9317 14.3878 81.514 14.5081 81.1671 14.671C80.8273 14.8338 80.5654 15.0462 80.3813 15.3081C80.2043 15.563 80.1158 15.8674 80.1158 16.2214C80.1158 16.7594 80.307 17.17 80.6892 17.4532C81.0786 17.7364 81.5706 17.878 82.1653 17.878ZM91.9902 21V4.68891H96.9281V7.68352H97.1087C97.4485 6.6924 98.0219 5.91011 98.829 5.33668C99.636 4.76324 100.599 4.47652 101.717 4.47652C102.85 4.47652 103.82 4.76678 104.627 5.3473C105.434 5.92781 105.947 6.70655 106.167 7.68352H106.337C106.641 6.71363 107.236 5.93843 108.121 5.35792C109.006 4.77032 110.05 4.47652 111.253 4.47652C112.797 4.47652 114.05 4.97209 115.013 5.96321C115.975 6.94726 116.457 8.29943 116.457 10.0197V21H111.264V11.2091C111.264 10.395 111.055 9.7755 110.638 9.35074C110.22 8.91889 109.678 8.70296 109.013 8.70296C108.298 8.70296 107.735 8.93659 107.324 9.40383C106.921 9.864 106.719 10.4835 106.719 11.2622V21H101.728V11.156C101.728 10.3985 101.523 9.80028 101.112 9.36135C100.701 8.92243 100.16 8.70296 99.4874 8.70296C99.0343 8.70296 98.6343 8.8127 98.2874 9.03216C97.9405 9.24454 97.6679 9.54896 97.4697 9.94541C97.2786 10.3419 97.183 10.8091 97.183 11.3471V21H91.9902Z" fill="#14171A"/>
<path fill-rule="evenodd" clip-rule="evenodd" d="M9.16127 8.48372L9.16127 3.98633L0.166504 3.98633L0.166504 8.48372L0.166506 21.3762L9.16127 21.3762V8.48372ZM9.16127 8.48372C5.71711 9.06481 5.24498 9.53694 4.66389 12.9811C4.0828 9.53694 3.61066 9.06481 0.166504 8.48372C3.60461 7.89658 4.07675 7.42444 4.66389 3.98633C5.24498 7.43049 5.71711 7.90263 9.16127 8.48372Z" fill="#14171A"/>
<path d="M4.92501 30.7944V32.1765H0.443046V30.7944H4.92501ZM1.56354 38.3762V30.0787C1.56354 29.5686 1.66884 29.1441 1.87945 28.8052C2.09334 28.4662 2.37963 28.2128 2.73832 28.045C3.09701 27.8772 3.49519 27.7933 3.93285 27.7933C4.24218 27.7933 4.51696 27.8179 4.75718 27.8673C4.9974 27.9167 5.1751 27.9611 5.29028 28.0006L4.93488 29.3827C4.85919 29.3596 4.76376 29.3366 4.64859 29.3136C4.53341 29.2873 4.40507 29.2741 4.26357 29.2741C3.93121 29.2741 3.69592 29.3547 3.55771 29.516C3.42279 29.6739 3.35533 29.901 3.35533 30.1971V38.3762H1.56354ZM8.6515 38.5243C7.91109 38.5243 7.2694 38.3614 6.72643 38.0356C6.18346 37.7098 5.76225 37.2541 5.46279 36.6683C5.16663 36.0826 5.01855 35.3981 5.01855 34.6149C5.01855 33.8317 5.16663 33.1456 5.46279 32.5566C5.76225 31.9675 6.18346 31.5101 6.72643 31.1844C7.2694 30.8586 7.91109 30.6957 8.6515 30.6957C9.39191 30.6957 10.0336 30.8586 10.5766 31.1844C11.1195 31.5101 11.5391 31.9675 11.8353 32.5566C12.1347 33.1456 12.2845 33.8317 12.2845 34.6149C12.2845 35.3981 12.1347 36.0826 11.8353 36.6683C11.5391 37.2541 11.1195 37.7098 10.5766 38.0356C10.0336 38.3614 9.39191 38.5243 8.6515 38.5243ZM8.66137 37.0928C9.06284 37.0928 9.39849 36.9826 9.66833 36.7621C9.93817 36.5384 10.1389 36.2389 10.2705 35.8638C10.4055 35.4886 10.4729 35.0707 10.4729 34.61C10.4729 34.146 10.4055 33.7264 10.2705 33.3513C10.1389 32.9729 9.93817 32.6718 9.66833 32.448C9.39849 32.2242 9.06284 32.1123 8.66137 32.1123C8.25003 32.1123 7.9078 32.2242 7.63467 32.448C7.36483 32.6718 7.16245 32.9729 7.02753 33.3513C6.8959 33.7264 6.83009 34.146 6.83009 34.61C6.83009 35.0707 6.8959 35.4886 7.02753 35.8638C7.16245 36.2389 7.36483 36.5384 7.63467 36.7621C7.9078 36.9826 8.25003 37.0928 8.66137 37.0928ZM13.1061 38.3762V30.7944H14.8386V32.058H14.9176C15.0558 31.6204 15.2927 31.2831 15.6284 31.0461C15.9673 30.8059 16.354 30.6858 16.7884 30.6858C16.8871 30.6858 16.9973 30.6907 17.1191 30.7006C17.2441 30.7072 17.3478 30.7187 17.4301 30.7352V32.3789C17.3544 32.3526 17.2343 32.3295 17.0697 32.3098C16.9085 32.2867 16.7522 32.2752 16.6008 32.2752C16.275 32.2752 15.9822 32.346 15.7222 32.4875C15.4655 32.6257 15.2631 32.8182 15.115 33.065C14.967 33.3118 14.8929 33.5965 14.8929 33.9189V38.3762H13.1061ZM20.3098 29.8023V28.2671H28.3753V29.8023H25.2508V38.3762H23.4343V29.8023H20.3098ZM29.8522 38.3762L27.7099 30.7944H29.5314L30.8641 36.1254H30.9332L32.2956 30.7944H34.0972L35.4596 36.0958H35.5336L36.8466 30.7944H38.673L36.5258 38.3762H34.6649L33.2433 33.2526H33.1396L31.718 38.3762H29.8522ZM39.2256 38.3762V30.7944H41.0124V38.3762H39.2256ZM40.1239 29.7183C39.8409 29.7183 39.5974 29.6246 39.3934 29.437C39.1894 29.2461 39.0874 29.0174 39.0874 28.7509C39.0874 28.481 39.1894 28.2523 39.3934 28.0648C39.5974 27.8739 39.8409 27.7785 40.1239 27.7785C40.4102 27.7785 40.6537 27.8739 40.8545 28.0648C41.0585 28.2523 41.1605 28.481 41.1605 28.7509C41.1605 29.0174 41.0585 29.2461 40.8545 29.437C40.6537 29.6246 40.4102 29.7183 40.1239 29.7183ZM45.9409 30.7944V32.1765H41.5823V30.7944H45.9409ZM42.6584 28.9779H44.4452V36.0958C44.4452 36.336 44.4814 36.5203 44.5538 36.6486C44.6295 36.7736 44.7282 36.8592 44.85 36.9053C44.9717 36.9513 45.1067 36.9744 45.2548 36.9744C45.3666 36.9744 45.4686 36.9661 45.5608 36.9497C45.6562 36.9332 45.7286 36.9184 45.778 36.9053L46.0791 38.3022C45.9836 38.3351 45.8471 38.3713 45.6694 38.4108C45.495 38.4503 45.2811 38.4733 45.0277 38.4799C44.5802 38.493 44.177 38.4256 43.8184 38.2775C43.4597 38.1261 43.175 37.8925 42.9644 37.5766C42.7571 37.2607 42.6551 36.8658 42.6584 36.3919V28.9779ZM50.5262 30.7944V32.1765H46.1677V30.7944H50.5262ZM47.2437 28.9779H49.0306V36.0958C49.0306 36.336 49.0668 36.5203 49.1392 36.6486C49.2149 36.7736 49.3136 36.8592 49.4354 36.9053C49.5571 36.9513 49.692 36.9744 49.8401 36.9744C49.952 36.9744 50.054 36.9661 50.1462 36.9497C50.2416 36.9332 50.314 36.9184 50.3633 36.9053L50.6644 38.3022C50.569 38.3351 50.4324 38.3713 50.2548 38.4108C50.0803 38.4503 49.8664 38.4733 49.6131 38.4799C49.1655 38.493 48.7624 38.4256 48.4037 38.2775C48.045 38.1261 47.7604 37.8925 47.5498 37.5766C47.3425 37.2607 47.2405 36.8658 47.2437 36.3919V28.9779ZM54.6007 38.5243C53.8406 38.5243 53.1841 38.3663 52.6312 38.0504C52.0817 37.7312 51.6588 37.2804 51.3627 36.698C51.0665 36.1122 50.9184 35.4228 50.9184 34.6297C50.9184 33.8498 51.0665 33.1654 51.3627 32.5763C51.6621 31.984 52.08 31.5233 52.6164 31.1942C53.1528 30.8619 53.783 30.6957 54.5069 30.6957C54.9742 30.6957 55.4152 30.7714 55.8298 30.9227C56.2477 31.0708 56.6163 31.3012 56.9355 31.6138C57.258 31.9264 57.5114 32.3246 57.6956 32.8083C57.8799 33.2888 57.9721 33.8614 57.9721 34.5261V35.074H51.7575V33.8696H56.2592C56.256 33.5273 56.1819 33.223 56.0371 32.9564C55.8923 32.6866 55.6899 32.4743 55.43 32.3197C55.1733 32.165 54.8739 32.0877 54.5316 32.0877C54.1663 32.0877 53.8455 32.1765 53.5691 32.3542C53.2927 32.5286 53.0771 32.759 52.9225 33.0453C52.7711 33.3283 52.6937 33.6392 52.6905 33.9782V35.0296C52.6905 35.4705 52.7711 35.8489 52.9323 36.1649C53.0936 36.4775 53.319 36.7177 53.6086 36.8855C53.8982 37.0501 54.2371 37.1323 54.6254 37.1323C54.8854 37.1323 55.1207 37.0961 55.3313 37.0237C55.5419 36.948 55.7245 36.8378 55.8792 36.693C56.0338 36.5482 56.1507 36.3689 56.2296 36.155L57.898 36.3426C57.7927 36.7835 57.592 37.1685 57.2958 37.4976C57.0029 37.8234 56.6278 38.0768 56.1704 38.2578C55.713 38.4355 55.1898 38.5243 54.6007 38.5243ZM58.7887 38.3762V30.7944H60.5213V32.058H60.6003C60.7385 31.6204 60.9754 31.2831 61.3111 31.0461C61.65 30.8059 62.0367 30.6858 62.4711 30.6858C62.5698 30.6858 62.68 30.6907 62.8018 30.7006C62.9268 30.7072 63.0305 30.7187 63.1127 30.7352V32.3789C63.0371 32.3526 62.9169 32.3295 62.7524 32.3098C62.5912 32.2867 62.4349 32.2752 62.2835 32.2752C61.9577 32.2752 61.6648 32.346 61.4049 32.4875C61.1482 32.6257 60.9458 32.8182 60.7977 33.065C60.6496 33.3118 60.5756 33.5965 60.5756 33.9189V38.3762H58.7887ZM75.0896 31.678H73.2436C73.1909 31.3752 73.0938 31.107 72.9523 30.8734C72.8108 30.6364 72.6348 30.4357 72.4242 30.2712C72.2136 30.1066 71.9733 29.9832 71.7035 29.901C71.4369 29.8154 71.149 29.7726 70.8397 29.7726C70.2901 29.7726 69.8031 29.9108 69.3786 30.1873C68.9541 30.4604 68.6217 30.8619 68.3815 31.3917C68.1413 31.9182 68.0212 32.5615 68.0212 33.3217C68.0212 34.095 68.1413 34.7466 68.3815 35.2764C68.625 35.8029 68.9574 36.2011 69.3786 36.4709C69.8031 36.7374 70.2885 36.8707 70.8347 36.8707C71.1375 36.8707 71.4205 36.8312 71.6838 36.7523C71.9503 36.67 72.1889 36.5499 72.3995 36.3919C72.6134 36.234 72.7927 36.0398 72.9375 35.8095C73.0856 35.5791 73.1876 35.3159 73.2436 35.0197L75.0896 35.0296C75.0205 35.51 74.8708 35.9608 74.6405 36.382C74.4134 36.8033 74.1156 37.1751 73.747 37.4976C73.3785 37.8168 72.9474 38.0669 72.4538 38.2479C71.9602 38.4256 71.4123 38.5144 70.8101 38.5144C69.9216 38.5144 69.1285 38.3088 68.4309 37.8974C67.7332 37.4861 67.1837 36.8921 66.7822 36.1155C66.3808 35.3389 66.18 34.4076 66.18 33.3217C66.18 32.2324 66.3824 31.3012 66.7872 30.5279C67.1919 29.7512 67.7431 29.1573 68.4407 28.7459C69.1384 28.3346 69.9282 28.1289 70.8101 28.1289C71.3728 28.1289 71.896 28.2079 72.3797 28.3659C72.8635 28.5238 73.2946 28.7558 73.673 29.0618C74.0514 29.3646 74.3624 29.7364 74.6059 30.1774C74.8527 30.6151 75.014 31.1152 75.0896 31.678ZM75.9927 38.3762V30.7944H77.7253V32.058H77.8042C77.9425 31.6204 78.1794 31.2831 78.515 31.0461C78.854 30.8059 79.2406 30.6858 79.675 30.6858C79.7737 30.6858 79.884 30.6907 80.0057 30.7006C80.1308 30.7072 80.2344 30.7187 80.3167 30.7352V32.3789C80.241 32.3526 80.1209 32.3295 79.9564 32.3098C79.7951 32.2867 79.6388 32.2752 79.4874 32.2752C79.1617 32.2752 78.8688 32.346 78.6088 32.4875C78.3521 32.6257 78.1498 32.8182 78.0017 33.065C77.8536 33.3118 77.7796 33.5965 77.7796 33.9189V38.3762H75.9927ZM83.8532 38.5243C83.093 38.5243 82.4365 38.3663 81.8837 38.0504C81.3341 37.7312 80.9113 37.2804 80.6151 36.698C80.3189 36.1122 80.1709 35.4228 80.1709 34.6297C80.1709 33.8498 80.3189 33.1654 80.6151 32.5763C80.9146 31.984 81.3325 31.5233 81.8689 31.1942C82.4052 30.8619 83.0354 30.6957 83.7594 30.6957C84.2267 30.6957 84.6676 30.7714 85.0823 30.9227C85.5002 31.0708 85.8687 31.3012 86.1879 31.6138C86.5104 31.9264 86.7638 32.3246 86.9481 32.8083C87.1324 33.2888 87.2245 33.8614 87.2245 34.5261V35.074H81.01V33.8696H85.5117C85.5084 33.5273 85.4344 33.223 85.2896 32.9564C85.1448 32.6866 84.9424 32.4743 84.6824 32.3197C84.4258 32.165 84.1263 32.0877 83.7841 32.0877C83.4188 32.0877 83.0979 32.1765 82.8215 32.3542C82.5451 32.5286 82.3296 32.759 82.1749 33.0453C82.0235 33.3283 81.9462 33.6392 81.9429 33.9782V35.0296C81.9429 35.4705 82.0235 35.8489 82.1848 36.1649C82.346 36.4775 82.5714 36.7177 82.861 36.8855C83.1506 37.0501 83.4895 37.1323 83.8778 37.1323C84.1378 37.1323 84.3731 37.0961 84.5837 37.0237C84.7943 36.948 84.9769 36.8378 85.1316 36.693C85.2863 36.5482 85.4031 36.3689 85.4821 36.155L87.1505 36.3426C87.0452 36.7835 86.8444 37.1685 86.5483 37.4976C86.2554 37.8234 85.8802 38.0768 85.4228 38.2578C84.9654 38.4355 84.4422 38.5243 83.8532 38.5243ZM90.2229 38.5292C89.7425 38.5292 89.3098 38.4437 88.9247 38.2726C88.543 38.0982 88.2403 37.8415 88.0165 37.5025C87.796 37.1636 87.6858 36.7457 87.6858 36.2488C87.6858 35.821 87.7648 35.4672 87.9227 35.1875C88.0807 34.9078 88.2962 34.684 88.5693 34.5162C88.8425 34.3484 89.1502 34.2217 89.4924 34.1361C89.8379 34.0473 90.195 33.9831 90.5635 33.9436C91.0078 33.8976 91.3681 33.8564 91.6445 33.8202C91.9209 33.7807 92.1217 33.7215 92.2467 33.6425C92.3751 33.5603 92.4392 33.4336 92.4392 33.2624V33.2328C92.4392 32.861 92.329 32.573 92.1085 32.369C91.888 32.165 91.5705 32.063 91.1558 32.063C90.7182 32.063 90.371 32.1584 90.1143 32.3493C89.8609 32.5401 89.6898 32.7655 89.601 33.0255L87.9326 32.7886C88.0642 32.3279 88.2814 31.9429 88.5841 31.6335C88.8869 31.3209 89.2571 31.0873 89.6948 30.9326C90.1324 30.7747 90.6162 30.6957 91.146 30.6957C91.5112 30.6957 91.8749 30.7385 92.2368 30.824C92.5988 30.9096 92.9295 31.0511 93.229 31.2485C93.5285 31.4427 93.7687 31.7076 93.9497 32.0432C94.1339 32.3789 94.2261 32.7985 94.2261 33.3019V38.3762H92.5083V37.3347H92.4491C92.3405 37.5453 92.1875 37.7428 91.99 37.927C91.7959 38.108 91.5507 38.2545 91.2546 38.3663C90.9617 38.4749 90.6178 38.5292 90.2229 38.5292ZM90.6869 37.2162C91.0456 37.2162 91.3566 37.1455 91.6198 37.004C91.8831 36.8592 92.0855 36.6683 92.227 36.4314C92.3718 36.1945 92.4442 35.9362 92.4442 35.6564V34.763C92.3882 34.8091 92.2928 34.8519 92.1579 34.8913C92.0262 34.9308 91.8782 34.9654 91.7136 34.995C91.5491 35.0246 91.3862 35.0509 91.225 35.074C91.0637 35.097 90.9239 35.1168 90.8054 35.1332C90.5388 35.1694 90.3003 35.2286 90.0897 35.3109C89.879 35.3932 89.7129 35.5084 89.5911 35.6564C89.4694 35.8012 89.4085 35.9888 89.4085 36.2192C89.4085 36.5482 89.5286 36.7967 89.7688 36.9645C90.009 37.1323 90.3151 37.2162 90.6869 37.2162ZM99.1138 30.7944V32.1765H94.7552V30.7944H99.1138ZM95.8313 28.9779H97.6182V36.0958C97.6182 36.336 97.6544 36.5203 97.7268 36.6486C97.8024 36.7736 97.9012 36.8592 98.0229 36.9053C98.1447 36.9513 98.2796 36.9744 98.4277 36.9744C98.5396 36.9744 98.6416 36.9661 98.7337 36.9497C98.8291 36.9332 98.9015 36.9184 98.9509 36.9053L99.252 38.3022C99.1566 38.3351 99.02 38.3713 98.8423 38.4108C98.6679 38.4503 98.454 38.4733 98.2006 38.4799C97.7531 38.493 97.35 38.4256 96.9913 38.2775C96.6326 38.1261 96.3479 37.8925 96.1373 37.5766C95.93 37.2607 95.828 36.8658 95.8313 36.3919V28.9779ZM103.139 38.5243C102.399 38.5243 101.757 38.3614 101.214 38.0356C100.671 37.7098 100.25 37.2541 99.9502 36.6683C99.654 36.0826 99.506 35.3981 99.506 34.6149C99.506 33.8317 99.654 33.1456 99.9502 32.5566C100.25 31.9675 100.671 31.5101 101.214 31.1844C101.757 30.8586 102.399 30.6957 103.139 30.6957C103.879 30.6957 104.521 30.8586 105.064 31.1844C105.607 31.5101 106.027 31.9675 106.323 32.5566C106.622 33.1456 106.772 33.8317 106.772 34.6149C106.772 35.3981 106.622 36.0826 106.323 36.6683C106.027 37.2541 105.607 37.7098 105.064 38.0356C104.521 38.3614 103.879 38.5243 103.139 38.5243ZM103.149 37.0928C103.55 37.0928 103.886 36.9826 104.156 36.7621C104.426 36.5384 104.626 36.2389 104.758 35.8638C104.893 35.4886 104.96 35.0707 104.96 34.61C104.96 34.146 104.893 33.7264 104.758 33.3513C104.626 32.9729 104.426 32.6718 104.156 32.448C103.886 32.2242 103.55 32.1123 103.149 32.1123C102.737 32.1123 102.395 32.2242 102.122 32.448C101.852 32.6718 101.65 32.9729 101.515 33.3513C101.383 33.7264 101.318 34.146 101.318 34.61C101.318 35.0707 101.383 35.4886 101.515 35.8638C101.65 36.2389 101.852 36.5384 102.122 36.7621C102.395 36.9826 102.737 37.0928 103.149 37.0928ZM107.593 38.3762V30.7944H109.326V32.058H109.405C109.543 31.6204 109.78 31.2831 110.116 31.0461C110.455 30.8059 110.841 30.6858 111.276 30.6858C111.375 30.6858 111.485 30.6907 111.607 30.7006C111.732 30.7072 111.835 30.7187 111.917 30.7352V32.3789C111.842 32.3526 111.722 32.3295 111.557 32.3098C111.396 32.2867 111.24 32.2752 111.088 32.2752C110.762 32.2752 110.47 32.346 110.21 32.4875C109.953 32.6257 109.751 32.8182 109.602 33.065C109.454 33.3118 109.38 33.5965 109.38 33.9189V38.3762H107.593ZM118.402 32.7985L116.773 32.9761C116.727 32.8116 116.646 32.657 116.531 32.5122C116.419 32.3674 116.268 32.2505 116.077 32.1617C115.886 32.0728 115.653 32.0284 115.376 32.0284C115.004 32.0284 114.692 32.109 114.438 32.2703C114.188 32.4315 114.065 32.6405 114.068 32.8972C114.065 33.1177 114.145 33.297 114.31 33.4352C114.478 33.5734 114.754 33.6869 115.139 33.7758L116.433 34.0522C117.15 34.2069 117.683 34.452 118.032 34.7877C118.384 35.1233 118.562 35.5627 118.565 36.1056C118.562 36.5828 118.422 37.004 118.145 37.3693C117.872 37.7312 117.492 38.0142 117.005 38.2183C116.518 38.4223 115.959 38.5243 115.327 38.5243C114.399 38.5243 113.652 38.3302 113.086 37.9418C112.52 37.5503 112.183 37.0056 112.074 36.308L113.816 36.1402C113.895 36.4824 114.063 36.7407 114.32 36.9151C114.577 37.0895 114.911 37.1768 115.322 37.1768C115.746 37.1768 116.087 37.0895 116.344 36.9151C116.604 36.7407 116.734 36.5252 116.734 36.2685C116.734 36.0513 116.65 35.872 116.482 35.7305C116.317 35.589 116.061 35.4804 115.712 35.4047L114.419 35.1332C113.691 34.9818 113.153 34.7268 112.805 34.3681C112.456 34.0061 112.283 33.5487 112.286 32.9959C112.283 32.5286 112.41 32.1239 112.666 31.7816C112.926 31.4361 113.287 31.1695 113.747 30.982C114.211 30.7911 114.746 30.6957 115.352 30.6957C116.24 30.6957 116.939 30.8849 117.449 31.2633C117.963 31.6418 118.28 32.1535 118.402 32.7985Z" fill="#078BFD"/>
</svg>
